<svg xmlns="http://www.w3.org/2000/svg" width="1180" height="900" viewBox="0 0 1180 900" role="img" aria-label="KPipe vs Confluent PC vs Reactor Kafka vs raw KafkaConsumer + virtual threads — parallel-consumer throughput, allocation, and GC behavior">
  <defs>
    <style>
      .bg { fill: #ffffff; }
      .panel { fill: #f8fafc; stroke: #cbd5e1; stroke-width: 1; }
      .title { fill: #111827; font: 700 24px -apple-system, BlinkMacSystemFont, Segoe UI, Roboto, sans-serif; }
      .subtitle { fill: #4b5563; font: 500 14px -apple-system, BlinkMacSystemFont, Segoe UI, Roboto, sans-serif; }
      .h2 { fill: #111827; font: 700 16px -apple-system, BlinkMacSystemFont, Segoe UI, Roboto, sans-serif; }
      .h3 { fill: #1f2937; font: 700 14px -apple-system, BlinkMacSystemFont, Segoe UI, Roboto, sans-serif; }
      .axis { stroke: #9ca3af; stroke-width: 1; }
      .grid { stroke: #e5e7eb; stroke-width: 1; stroke-dasharray: 4 4; }
      .label { fill: #374151; font: 600 12px -apple-system, BlinkMacSystemFont, Segoe UI, Roboto, sans-serif; }
      .barlabel { fill: #ffffff; font: 700 12px -apple-system, BlinkMacSystemFont, Segoe UI, Roboto, sans-serif; }
      .small { fill: #4b5563; font: 11px -apple-system, BlinkMacSystemFont, Segoe UI, Roboto, sans-serif; }
      .value { fill: #111827; font: 700 12px -apple-system, BlinkMacSystemFont, Segoe UI, Roboto, sans-serif; }
      .legend { fill: #374151; font: 12px -apple-system, BlinkMacSystemFont, Segoe UI, Roboto, sans-serif; }
      .note { fill: #4b5563; font: 12px -apple-system, BlinkMacSystemFont, Segoe UI, Roboto, sans-serif; }
      .raw { fill: #14b8a6; }
      .kpipe { fill: #22c55e; }
      .reactor { fill: #8b5cf6; }
      .reactorPrelim { fill: #c4b5fd; }
      .confluent { fill: #3b82f6; }
    </style>
  </defs>

  <rect class="bg" x="0" y="0" width="1180" height="900"/>

  <text x="28" y="40" class="title">ParallelProcessingBenchmark — 4-runtime competitive suite</text>
  <text x="28" y="62" class="subtitle">JMH Throughput + gc profiler. workMicros=0. 25,000 records · 8 partitions · forks=2 · iter=5 · Testcontainers Kafka 4.2.0 · Apple Silicon 10c · JDK 25.0.2</text>

  <rect x="28" y="92" width="1124" height="240" class="panel"/>
  <text x="48" y="124" class="h2">Throughput (records / second, higher is better)</text>

  <rect x="616" y="108" width="10" height="10" class="raw"/>
  <text x="630" y="117" class="small">Raw KafkaConsumer + VT</text>
  <rect x="780" y="108" width="10" height="10" class="kpipe"/>
  <text x="794" y="117" class="small">KPipe</text>
  <rect x="848" y="108" width="10" height="10" class="reactorPrelim"/>
  <text x="862" y="117" class="small">Reactor Kafka (single smoke iter, 1.3.25 post-fix)</text>
  <rect x="1086" y="108" width="10" height="10" class="confluent"/>
  <text x="1100" y="117" class="small">Confluent PC</text>

  <line x1="260" y1="300" x2="1100" y2="300" class="axis"/>
  <line x1="260" y1="140" x2="260" y2="300" class="axis"/>
  <line x1="400" y1="140" x2="400" y2="300" class="grid"/>
  <line x1="540" y1="140" x2="540" y2="300" class="grid"/>
  <line x1="680" y1="140" x2="680" y2="300" class="grid"/>
  <line x1="820" y1="140" x2="820" y2="300" class="grid"/>
  <line x1="960" y1="140" x2="960" y2="300" class="grid"/>
  <line x1="1100" y1="140" x2="1100" y2="300" class="grid"/>

  <text x="260" y="320" class="small" text-anchor="middle">0</text>
  <text x="400" y="320" class="small" text-anchor="middle">100k</text>
  <text x="540" y="320" class="small" text-anchor="middle">200k</text>
  <text x="680" y="320" class="small" text-anchor="middle">300k</text>
  <text x="820" y="320" class="small" text-anchor="middle">400k</text>
  <text x="960" y="320" class="small" text-anchor="middle">500k</text>
  <text x="1100" y="320" class="small" text-anchor="middle">600k</text>

  <rect x="260" y="148" width="799" height="28" class="raw"/>
  <text x="180" y="167" class="label" text-anchor="start">Raw + VT</text>
  <text x="1051" y="167" class="value" text-anchor="end">570,890 ± 38,369</text>

  <rect x="260" y="184" width="775" height="28" class="kpipe"/>
  <text x="180" y="203" class="label" text-anchor="start">KPipe</text>
  <text x="1027" y="203" class="value" text-anchor="end">553,704 ± 54,924</text>

  <rect x="260" y="220" width="420" height="28" class="reactorPrelim"/>
  <text x="180" y="239" class="label" text-anchor="start">Reactor*</text>
  <text x="672" y="239" class="value" text-anchor="end">~300,000 (1 iter)</text>

  <rect x="260" y="256" width="151" height="28" class="confluent"/>
  <text x="180" y="275" class="label" text-anchor="start">Confluent</text>
  <text x="420" y="275" class="value" text-anchor="start">107,877 ± 8,892</text>

  <text x="28" y="370" class="h2">Cost profile (allocation and GC)</text>

  <rect x="28" y="386" width="378" height="240" class="panel"/>
  <text x="48" y="410" class="h3">gc.alloc.rate (MB/sec)</text>
  <text x="48" y="427" class="small">allocation rate while running</text>

  <line x1="76" y1="600" x2="386" y2="600" class="axis"/>
  <line x1="76" y1="450" x2="76" y2="600" class="axis"/>

  <rect x="105" y="591" width="55" height="9" class="raw"/>
  <text x="132" y="585" class="value" text-anchor="middle">2.35</text>
  <text x="132" y="618" class="small" text-anchor="middle">Raw</text>

  <rect x="180" y="454" width="55" height="146" class="kpipe"/>
  <text x="207" y="448" class="value" text-anchor="middle">39.48</text>
  <text x="207" y="618" class="small" text-anchor="middle">KPipe</text>

  <rect x="255" y="595" width="55" height="5" class="confluent"/>
  <text x="282" y="589" class="value" text-anchor="middle">1.42</text>
  <text x="282" y="618" class="small" text-anchor="middle">Confluent</text>

  <text x="48" y="640" class="small">Lower is better. Reactor full sweep pending.</text>

  <rect x="416" y="386" width="378" height="240" class="panel"/>
  <text x="436" y="410" class="h3">gc.alloc.rate.norm (B/op)</text>
  <text x="436" y="427" class="small">bytes allocated per record processed</text>

  <line x1="464" y1="600" x2="774" y2="600" class="axis"/>
  <line x1="464" y1="450" x2="464" y2="600" class="axis"/>

  <rect x="493" y="592" width="55" height="8" class="raw"/>
  <text x="520" y="586" class="value" text-anchor="middle">55</text>
  <text x="520" y="618" class="small" text-anchor="middle">Raw</text>

  <rect x="568" y="465" width="55" height="135" class="kpipe"/>
  <text x="595" y="459" class="value" text-anchor="middle">923</text>
  <text x="595" y="618" class="small" text-anchor="middle">KPipe</text>

  <rect x="643" y="595" width="55" height="5" class="confluent"/>
  <text x="670" y="589" class="value" text-anchor="middle">34</text>
  <text x="670" y="618" class="small" text-anchor="middle">Confluent</text>

  <text x="436" y="640" class="small">Lower is better. Confluent leanest, KPipe most.</text>

  <rect x="804" y="386" width="348" height="240" class="panel"/>
  <text x="824" y="410" class="h3">GC activity (lower is better)</text>
  <text x="824" y="427" class="small">total across measurement iterations</text>

  <text x="836" y="448" class="label">gc.count</text>
  <text x="990" y="448" class="label">gc.time (ms)</text>

  <line x1="836" y1="600" x2="970" y2="600" class="axis"/>
  <line x1="836" y1="460" x2="836" y2="600" class="axis"/>
  <line x1="990" y1="600" x2="1130" y2="600" class="axis"/>

  <rect x="846" y="562" width="28" height="38" class="raw"/>
  <text x="860" y="557" class="value" text-anchor="middle">94</text>
  <text x="860" y="618" class="small" text-anchor="middle">Raw</text>

  <rect x="884" y="560" width="28" height="40" class="kpipe"/>
  <text x="898" y="555" class="value" text-anchor="middle">99</text>
  <text x="898" y="618" class="small" text-anchor="middle">KPipe</text>

  <rect x="922" y="462" width="28" height="138" class="confluent"/>
  <text x="936" y="457" class="value" text-anchor="middle">347</text>
  <text x="936" y="618" class="small" text-anchor="middle">Conf.</text>

  <rect x="1000" y="576" width="28" height="24" class="raw"/>
  <text x="1014" y="571" class="value" text-anchor="middle">110</text>
  <text x="1014" y="618" class="small" text-anchor="middle">Raw</text>

  <rect x="1038" y="571" width="28" height="29" class="kpipe"/>
  <text x="1052" y="566" class="value" text-anchor="middle">132</text>
  <text x="1052" y="618" class="small" text-anchor="middle">KPipe</text>

  <rect x="1076" y="462" width="28" height="138" class="confluent"/>
  <text x="1090" y="457" class="value" text-anchor="middle">628</text>
  <text x="1090" y="618" class="small" text-anchor="middle">Conf.</text>

  <rect x="28" y="654" width="1124" height="220" class="panel"/>
  <text x="48" y="684" class="h2">Summary</text>

  <text x="48" y="712" class="note">• Throughput: KPipe ≈ Raw KafkaConsumer + virtual threads within error — KPipe's framework overhead on the hot path is statistically invisible.</text>
  <text x="48" y="734" class="note">• Both Loom-based runtimes are about 5× Confluent Parallel Consumer at workMicros=0. The Loom win is the actual headline; KPipe's contribution is "wrapped it cleanly."</text>
  <text x="48" y="756" class="note">• *Reactor: a single smoke iteration on Reactor Kafka 1.3.25 (the upstream fix shipped 2025-11-06). The other three rows are forks=2 × iter=5 — the Reactor bar uses a lighter fill to flag that.</text>
  <text x="48" y="778" class="note">• Allocation: Confluent leanest (~34 B/op), Raw next (~55 B/op), KPipe most (~923 B/op) due to Result&lt;T&gt; wrappers + per-record VT spawn. At this throughput it doesn't depress ops/s.</text>
  <text x="48" y="800" class="note">• GC behavior: KPipe and Raw run far fewer GC events and less total GC time than Confluent — counter-intuitively, Confluent's slower iterations cycle the young gen more often.</text>
  <text x="48" y="822" class="note">• Caveats: not a production benchmark — single-broker Testcontainers, replication 1, small JSON payload, no latency-percentile data yet. See benchmarks/METHODOLOGY.md for the full list.</text>
  <text x="48" y="852" class="small">Raw JMH JSON: benchmarks/results/2026-05-16.json · Reactor row will be replaced with full workMicros=0/100/1000 sweep once the in-flight run completes.</text>
</svg>
