<svg xmlns="http://www.w3.org/2000/svg" width="1180" height="900" viewBox="0 0 1180 900" role="img" aria-label="KPipe vs Confluent PC vs Reactor Kafka vs raw KafkaConsumer + virtual threads — parallel-consumer throughput, allocation, and GC behavior">
  <defs>
    <style>
      .bg { fill: #ffffff; }
      .panel { fill: #f8fafc; stroke: #cbd5e1; stroke-width: 1; }
      .title { fill: #111827; font: 700 24px -apple-system, BlinkMacSystemFont, Segoe UI, Roboto, sans-serif; }
      .subtitle { fill: #4b5563; font: 500 14px -apple-system, BlinkMacSystemFont, Segoe UI, Roboto, sans-serif; }
      .h2 { fill: #111827; font: 700 16px -apple-system, BlinkMacSystemFont, Segoe UI, Roboto, sans-serif; }
      .h3 { fill: #1f2937; font: 700 14px -apple-system, BlinkMacSystemFont, Segoe UI, Roboto, sans-serif; }
      .axis { stroke: #9ca3af; stroke-width: 1; }
      .grid { stroke: #e5e7eb; stroke-width: 1; stroke-dasharray: 4 4; }
      .label { fill: #374151; font: 600 12px -apple-system, BlinkMacSystemFont, Segoe UI, Roboto, sans-serif; }
      .small { fill: #4b5563; font: 11px -apple-system, BlinkMacSystemFont, Segoe UI, Roboto, sans-serif; }
      .value { fill: #111827; font: 700 12px -apple-system, BlinkMacSystemFont, Segoe UI, Roboto, sans-serif; }
      .note { fill: #4b5563; font: 12px -apple-system, BlinkMacSystemFont, Segoe UI, Roboto, sans-serif; }
      .raw { fill: #14b8a6; }
      .kpipe { fill: #22c55e; }
      .reactor { fill: #8b5cf6; }
      .confluent { fill: #3b82f6; }
    </style>
  </defs>

  <rect class="bg" x="0" y="0" width="1180" height="900"/>

  <text x="28" y="40" class="title">ParallelProcessingBenchmark — 4-runtime competitive suite</text>
  <text x="28" y="62" class="subtitle">JMH Throughput + gc profiler. 25,000 records · 8 partitions · forks=2 · iter=5 · Testcontainers Kafka 4.2.0 · Apple Silicon 10c · JDK 25.0.2</text>

  <!-- Legend strip above the panel -->
  <rect x="48" y="78" width="10" height="10" class="raw"/>
  <text x="64" y="87" class="small">Raw KafkaConsumer + VT</text>
  <rect x="222" y="78" width="10" height="10" class="kpipe"/>
  <text x="238" y="87" class="small">KPipe</text>
  <rect x="288" y="78" width="10" height="10" class="reactor"/>
  <text x="304" y="87" class="small">Reactor Kafka 1.3.25</text>
  <rect x="430" y="78" width="10" height="10" class="confluent"/>
  <text x="446" y="87" class="small">Confluent Parallel Consumer</text>

  <!-- Throughput panel — 3 grouped bars per workMicros cell -->
  <rect x="28" y="100" width="1124" height="360" class="panel"/>
  <text x="48" y="128" class="h2">Throughput across workMicros sweep (records / second, higher is better)</text>

  <!-- Y axis: max ~600k, panel chart area y=160..400 -->
  <line x1="120" y1="400" x2="1140" y2="400" class="axis"/>
  <line x1="120" y1="160" x2="120" y2="400" class="axis"/>

  <!-- Y gridlines + ticks (0, 100k, 200k, 300k, 400k, 500k, 600k) -->
  <line x1="120" y1="360" x2="1140" y2="360" class="grid"/>
  <line x1="120" y1="320" x2="1140" y2="320" class="grid"/>
  <line x1="120" y1="280" x2="1140" y2="280" class="grid"/>
  <line x1="120" y1="240" x2="1140" y2="240" class="grid"/>
  <line x1="120" y1="200" x2="1140" y2="200" class="grid"/>
  <line x1="120" y1="160" x2="1140" y2="160" class="grid"/>

  <text x="115" y="404" class="small" text-anchor="end">0</text>
  <text x="115" y="364" class="small" text-anchor="end">100k</text>
  <text x="115" y="324" class="small" text-anchor="end">200k</text>
  <text x="115" y="284" class="small" text-anchor="end">300k</text>
  <text x="115" y="244" class="small" text-anchor="end">400k</text>
  <text x="115" y="204" class="small" text-anchor="end">500k</text>
  <text x="115" y="164" class="small" text-anchor="end">600k</text>

  <!-- 3 groups: workMicros=0 (x~200), =100 (x~540), =1000 (x~880). Each group has 4 bars, 40px wide, 4px gap. -->
  <!-- y = 400 - (score / 600000 * 240) -->

  <!-- GROUP 1: workMicros=0 -->
  <!-- Raw 542859 → h=217 -->
  <rect x="200" y="183" width="40" height="217" class="raw"/>
  <text x="220" y="178" class="value" text-anchor="middle">542k</text>
  <!-- KPipe 473491 → h=189 -->
  <rect x="244" y="211" width="40" height="189" class="kpipe"/>
  <text x="264" y="206" class="value" text-anchor="middle">473k</text>
  <!-- Reactor 256648 → h=103 -->
  <rect x="288" y="297" width="40" height="103" class="reactor"/>
  <text x="308" y="292" class="value" text-anchor="middle">257k</text>
  <!-- Confluent 100106 → h=40 -->
  <rect x="332" y="360" width="40" height="40" class="confluent"/>
  <text x="352" y="355" class="value" text-anchor="middle">100k</text>

  <text x="286" y="425" class="label" text-anchor="middle">workMicros = 0</text>
  <text x="286" y="442" class="small" text-anchor="middle">pure framework overhead</text>

  <!-- GROUP 2: workMicros=100 (offset +340) -->
  <!-- Raw 500231 → h=200 -->
  <rect x="540" y="200" width="40" height="200" class="raw"/>
  <text x="560" y="195" class="value" text-anchor="middle">500k</text>
  <!-- KPipe 461273 → h=184 -->
  <rect x="584" y="216" width="40" height="184" class="kpipe"/>
  <text x="604" y="211" class="value" text-anchor="middle">461k</text>
  <!-- Reactor 77542 → h=31 -->
  <rect x="628" y="369" width="40" height="31" class="reactor"/>
  <text x="648" y="364" class="value" text-anchor="middle">78k</text>
  <!-- Confluent 108194 → h=43 -->
  <rect x="672" y="357" width="40" height="43" class="confluent"/>
  <text x="692" y="352" class="value" text-anchor="middle">108k</text>

  <text x="626" y="425" class="label" text-anchor="middle">workMicros = 100</text>
  <text x="626" y="442" class="small" text-anchor="middle">local enrichment</text>

  <!-- GROUP 3: workMicros=1000 (offset +340 again) -->
  <!-- Raw 482639 → h=193 -->
  <rect x="880" y="207" width="40" height="193" class="raw"/>
  <text x="900" y="202" class="value" text-anchor="middle">483k</text>
  <!-- KPipe 430526 → h=172 -->
  <rect x="924" y="228" width="40" height="172" class="kpipe"/>
  <text x="944" y="223" class="value" text-anchor="middle">431k</text>
  <!-- Reactor 8979 → h=4 (tiny — emphasise with label outside) -->
  <rect x="968" y="396" width="40" height="4" class="reactor"/>
  <text x="988" y="391" class="value" text-anchor="middle" fill="#7c3aed">9k ⚠</text>
  <!-- Confluent 64715 → h=26 -->
  <rect x="1012" y="374" width="40" height="26" class="confluent"/>
  <text x="1032" y="369" class="value" text-anchor="middle">65k</text>

  <text x="966" y="425" class="label" text-anchor="middle">workMicros = 1000</text>
  <text x="966" y="442" class="small" text-anchor="middle">blocking I/O round trip</text>

  <!-- Cost Profile section -->
  <text x="28" y="500" class="h2">Cost profile at workMicros=0 (allocation and GC)</text>

  <!-- Panel 1: gc.alloc.rate.norm B/op -->
  <rect x="28" y="516" width="378" height="220" class="panel"/>
  <text x="48" y="540" class="h3">gc.alloc.rate.norm (B/op)</text>
  <text x="48" y="557" class="small">bytes allocated per record · lower is better</text>

  <line x1="76" y1="710" x2="386" y2="710" class="axis"/>
  <line x1="76" y1="580" x2="76" y2="710" class="axis"/>

  <!-- max 1000 B/op, 1 B = 0.13 px -->
  <rect x="100" y="703" width="50" height="7" class="confluent"/>
  <text x="125" y="697" class="value" text-anchor="middle">34</text>
  <text x="125" y="728" class="small" text-anchor="middle">Conf.</text>

  <rect x="160" y="703" width="50" height="7" class="raw"/>
  <text x="185" y="697" class="value" text-anchor="middle">55</text>
  <text x="185" y="728" class="small" text-anchor="middle">Raw</text>

  <rect x="220" y="687" width="50" height="23" class="reactor"/>
  <text x="245" y="681" class="value" text-anchor="middle">175</text>
  <text x="245" y="728" class="small" text-anchor="middle">Reactor</text>

  <rect x="280" y="590" width="50" height="120" class="kpipe"/>
  <text x="305" y="584" class="value" text-anchor="middle">924</text>
  <text x="305" y="728" class="small" text-anchor="middle">KPipe</text>

  <!-- Panel 2: gc.count -->
  <rect x="416" y="516" width="378" height="220" class="panel"/>
  <text x="436" y="540" class="h3">gc.count (events during measurement)</text>
  <text x="436" y="557" class="small">lower is better</text>

  <line x1="464" y1="710" x2="774" y2="710" class="axis"/>
  <line x1="464" y1="580" x2="464" y2="710" class="axis"/>

  <!-- max ~300, 1 = 0.43 px -->
  <rect x="488" y="670" width="50" height="40" class="raw"/>
  <text x="513" y="664" class="value" text-anchor="middle">93</text>
  <text x="513" y="728" class="small" text-anchor="middle">Raw</text>

  <rect x="548" y="668" width="50" height="42" class="kpipe"/>
  <text x="573" y="662" class="value" text-anchor="middle">98</text>
  <text x="573" y="728" class="small" text-anchor="middle">KPipe</text>

  <rect x="608" y="628" width="50" height="82" class="confluent"/>
  <text x="633" y="622" class="value" text-anchor="middle">192</text>
  <text x="633" y="728" class="small" text-anchor="middle">Conf.</text>

  <rect x="668" y="594" width="50" height="116" class="reactor"/>
  <text x="693" y="588" class="value" text-anchor="middle">272</text>
  <text x="693" y="728" class="small" text-anchor="middle">Reactor</text>

  <!-- Panel 3: gc.time ms -->
  <rect x="804" y="516" width="348" height="220" class="panel"/>
  <text x="824" y="540" class="h3">gc.time (ms during measurement)</text>
  <text x="824" y="557" class="small">lower is better</text>

  <line x1="836" y1="710" x2="1130" y2="710" class="axis"/>
  <line x1="836" y1="580" x2="836" y2="710" class="axis"/>

  <!-- max ~800, 1 = 0.16 px -->
  <rect x="858" y="692" width="50" height="18" class="raw"/>
  <text x="883" y="686" class="value" text-anchor="middle">112</text>
  <text x="883" y="728" class="small" text-anchor="middle">Raw</text>

  <rect x="918" y="683" width="50" height="27" class="kpipe"/>
  <text x="943" y="677" class="value" text-anchor="middle">166</text>
  <text x="943" y="728" class="small" text-anchor="middle">KPipe</text>

  <rect x="978" y="628" width="50" height="82" class="confluent"/>
  <text x="1003" y="622" class="value" text-anchor="middle">515</text>
  <text x="1003" y="728" class="small" text-anchor="middle">Conf.</text>

  <rect x="1038" y="593" width="50" height="117" class="reactor"/>
  <text x="1063" y="587" class="value" text-anchor="middle">732</text>
  <text x="1063" y="728" class="small" text-anchor="middle">Reactor</text>

  <!-- Summary panel -->
  <rect x="28" y="754" width="1124" height="130" class="panel"/>
  <text x="48" y="780" class="h2">Summary</text>

  <text x="48" y="804" class="note">• Raw KafkaConsumer + virtual threads is the fastest runtime. KPipe trails by 5–15% across the sweep — small measurable framework cost, very close.</text>
  <text x="48" y="824" class="note">• Reactor Kafka collapses under blocking work: 257k → 78k → 9k ops/sec as workMicros grows. At workMicros=1000 it is 48× slower than KPipe and 7× slower than Confluent.</text>
  <text x="48" y="844" class="note">• KPipe degrades gracefully (473k → 461k → 431k). Virtual threads scale beyond the partition count; each blocked record costs only kilobytes of stack.</text>
  <text x="48" y="864" class="note">• KPipe allocates ~924 B/op vs Confluent's 34 B/op — most in the table. At this throughput the JVM's young gen absorbs it without depressing ops/sec. Watch on tight heaps.</text>
</svg>
