<svg xmlns="http://www.w3.org/2000/svg" width="1180" height="800" viewBox="0 0 1180 800" role="img" aria-label="KPipe vs Confluent Parallel Benchmark GC and Throughput comparison">
  <defs>
    <style>
      .bg { fill: none; }
      .panel { fill: #f8fafc; stroke: #cbd5e1; stroke-width: 1; }
      .title { fill: #111827; font: 700 24px -apple-system, BlinkMacSystemFont, Segoe UI, Roboto, sans-serif; }
      .subtitle { fill: #4b5563; font: 500 14px -apple-system, BlinkMacSystemFont, Segoe UI, Roboto, sans-serif; }
      .h2 { fill: #111827; font: 700 16px -apple-system, BlinkMacSystemFont, Segoe UI, Roboto, sans-serif; }
      .axis { stroke: #9ca3af; stroke-width: 1; }
      .grid { stroke: #e5e7eb; stroke-width: 1; stroke-dasharray: 4 4; }
      .label { fill: #374151; font: 12px -apple-system, BlinkMacSystemFont, Segoe UI, Roboto, sans-serif; }
      .small { fill: #4b5563; font: 11px -apple-system, BlinkMacSystemFont, Segoe UI, Roboto, sans-serif; }
      .value { fill: #111827; font: 700 12px -apple-system, BlinkMacSystemFont, Segoe UI, Roboto, sans-serif; }
      .legend { fill: #374151; font: 12px -apple-system, BlinkMacSystemFont, Segoe UI, Roboto, sans-serif; }
      .note { fill: #4b5563; font: 12px -apple-system, BlinkMacSystemFont, Segoe UI, Roboto, sans-serif; }
      .kpipe { fill: #22c55e; }
      .confluent { fill: #3b82f6; }
    </style>
  </defs>

  <rect class="bg" x="0" y="0" width="1180" height="800"/>

  <text x="28" y="40" class="title">ParallelProcessingBenchmark: KPipe vs Confluent (Latest Baseline)</text>
  <text x="28" y="62" class="subtitle">JMH Throughput + gc profiler (16 samples), TARGET_MESSAGES=10,000, partitions=8</text>

  <!-- Headline panel -->
  <rect x="28" y="112" width="1104" height="176" class="panel"/>

  <!-- Throughput title (inside panel) -->
  <text x="48" y="144" class="h2">Throughput (ops/s)</text>

  <!-- top-panel legend inside white area -->
  <rect x="920" y="126" width="10" height="10" class="confluent"/>
  <text x="934" y="135" class="small">Confluent</text>
  <rect x="1010" y="126" width="10" height="10" class="kpipe"/>
  <text x="1024" y="135" class="small">KPipe</text>

  <!-- Throughput axis (0..3400) -->
  <line x1="110" y1="258" x2="790" y2="258" class="axis"/>
  <line x1="110" y1="156" x2="110" y2="258" class="axis"/>
  <line x1="110" y1="232" x2="790" y2="232" class="grid"/>
  <line x1="110" y1="206" x2="790" y2="206" class="grid"/>
  <line x1="110" y1="180" x2="790" y2="180" class="grid"/>

  <rect x="190" y="178" width="533" height="24" class="confluent"/>
  <rect x="190" y="214" width="545" height="24" class="kpipe"/>
  <text x="130" y="195" class="label">Confluent</text>
  <text x="130" y="231" class="label">KPipe</text>
  <text x="730" y="195" class="small">3235.415 +/- 14.876</text>
  <text x="742" y="231" class="small">3306.732 +/- 3.368</text>

  <text x="900" y="188" class="h2">Readout</text>
  <text x="900" y="212" class="label">Delta: +2.20% (KPipe over Confluent)</text>
  <text x="900" y="234" class="label">Gap: +71.317 ops/s</text>

  <!-- Cost profile -->
  <text x="28" y="328" class="h2">Cost Profile (allocation and GC behavior)</text>

  <!-- Panel A: alloc.rate MB/s -->
  <rect x="28" y="344" width="360" height="220" class="panel"/>
  <text x="44" y="368" class="label">gc.alloc.rate (MB/sec)</text>
  <rect x="248" y="356" width="10" height="10" class="confluent"/>
  <text x="262" y="365" class="small">Confluent</text>
  <rect x="334" y="356" width="10" height="10" class="kpipe"/>
  <text x="348" y="365" class="small">KPipe</text>
  <line x1="44" y1="530" x2="372" y2="530" class="axis"/>
  <line x1="44" y1="390" x2="44" y2="530" class="axis"/>
  <rect x="86" y="503" width="72" height="27" class="confluent"/>
  <rect x="206" y="390" width="72" height="140" class="kpipe"/>
  <text x="84" y="548" class="small">Confluent</text>
  <text x="214" y="548" class="small">KPipe</text>
  <text x="88" y="496" class="small">0.729</text>
  <text x="208" y="382" class="small">3.826</text>

  <!-- Panel B: alloc.rate.norm B/op -->
  <rect x="410" y="344" width="360" height="220" class="panel"/>
  <text x="426" y="368" class="label">gc.alloc.rate.norm (B/op)</text>
  <rect x="630" y="356" width="10" height="10" class="confluent"/>
  <text x="644" y="365" class="small">Confluent</text>
  <rect x="716" y="356" width="10" height="10" class="kpipe"/>
  <text x="730" y="365" class="small">KPipe</text>
  <line x1="426" y1="530" x2="754" y2="530" class="axis"/>
  <line x1="426" y1="390" x2="426" y2="530" class="axis"/>
  <rect x="468" y="503" width="72" height="27" class="confluent"/>
  <rect x="588" y="390" width="72" height="140" class="kpipe"/>
  <text x="466" y="548" class="small">Confluent</text>
  <text x="596" y="548" class="small">KPipe</text>
  <text x="470" y="496" class="small">275.078</text>
  <text x="590" y="382" class="small">1457.324</text>

  <!-- Panel C: GC count/time (vertical bars) -->
  <rect x="792" y="344" width="340" height="220" class="panel"/>
  <text x="808" y="368" class="label">GC activity (lower is better)</text>
  <rect x="972" y="356" width="10" height="10" class="confluent"/>
  <text x="986" y="365" class="small">Confluent</text>
  <rect x="1052" y="356" width="10" height="10" class="kpipe"/>
  <text x="1066" y="365" class="small">KPipe</text>

  <line x1="808" y1="530" x2="1136" y2="530" class="axis"/>
  <line x1="808" y1="390" x2="808" y2="530" class="axis"/>

  <!-- gc.count group -->
  <text x="832" y="386" class="small">gc.count</text>
  <rect x="848" y="410" width="40" height="120" class="confluent"/>
  <rect x="902" y="465" width="40" height="65" class="kpipe"/>
  <text x="860" y="404" class="small">80</text>
  <text x="914" y="459" class="small">43</text>

  <!-- gc.time group -->
  <text x="980" y="386" class="small">gc.time (ms)</text>
  <rect x="996" y="412" width="40" height="118" class="confluent"/>
  <rect x="1046" y="464" width="40" height="66" class="kpipe"/>
  <text x="1004" y="406" class="small">128</text>
  <text x="1054" y="458" class="small">72</text>

  <!-- Summary box -->
  <rect x="28" y="588" width="1104" height="108" class="panel"/>
  <text x="48" y="614" class="h2">Summary</text>
  <text x="48" y="638" class="label">- Throughput: KPipe leads by +2.20% in this baseline.</text>
  <text x="48" y="660" class="label">- Allocation: Confluent is lower on MB/sec and B/op.</text>
  <text x="48" y="682" class="label">- GC behavior: KPipe shows fewer events and less total GC time here.</text>
</svg>

